<?xml version="1.0" ?><svg data-name="Layer 1" id="Layer_1" viewBox="0 0 512 512" xmlns="http://www.w3.org/2000/svg"><title/><path d="M292.65,287.21h-73.3a116.16,116.16,0,0,0-116,116v76.35a6.1,6.1,0,1,0,12.19,0V403.24A104,104,0,0,1,219.35,299.4h73.3A104,104,0,0,1,396.49,403.24v76.35a6.1,6.1,0,1,0,12.19,0V403.24A116.16,116.16,0,0,0,292.65,287.21Z"/><path d="M234,240.48h44A66.15,66.15,0,0,0,344.1,174.4v-82A66.15,66.15,0,0,0,278,26.31H234a66.16,66.16,0,0,0-66.09,66.08v82A66.16,66.16,0,0,0,234,240.48ZM180.08,92.39A54,54,0,0,1,234,38.5h44a53.94,53.94,0,0,1,53.89,53.89v82A54,54,0,0,1,278,228.3H234a54,54,0,0,1-53.9-53.9Z"/></svg>