<?xml version="1.0" ?><svg id="Layer_1" style="enable-background:new 0 0 100 100;" version="1.1" viewBox="0 0 100 100" xml:space="preserve" xmlns="http://www.w3.org/2000/svg" xmlns:xlink="http://www.w3.org/1999/xlink"><g><path d="M75.8,81.5H43.5c-3,0-5.4-2.4-5.4-5.4V60.4c0-0.6,0.4-1,1-1s1,0.4,1,1v15.7c0,1.9,1.5,3.4,3.4,3.4h32.3   c1.9,0,3.4-1.5,3.4-3.4V23.9c0-1.9-1.5-3.4-3.4-3.4H43.5c-1.9,0-3.4,1.5-3.4,3.4v16.3c0,0.6-0.4,1-1,1s-1-0.4-1-1V23.9   c0-3,2.4-5.4,5.4-5.4h32.3c3,0,5.4,2.4,5.4,5.4v52.2C81.3,79.1,78.8,81.5,75.8,81.5z"/></g><g><path d="M53.9,51.6H19.7c-0.6,0-1-0.4-1-1s0.4-1,1-1h34.1c0.6,0,1,0.4,1,1S54.4,51.6,53.9,51.6z"/></g><g><path d="M46.5,59c-0.3,0-0.5-0.1-0.7-0.3c-0.4-0.4-0.4-1,0-1.4l7.4-7.4c0.4-0.4,1-0.4,1.4,0s0.4,1,0,1.4l-7.4,7.4   C47,58.9,46.8,59,46.5,59z"/></g><g><path d="M53.9,51.6c-0.3,0-0.5-0.1-0.7-0.3l-7.8-7.8c-0.4-0.4-0.4-1,0-1.4s1-0.4,1.4,0l7.8,7.8c0.4,0.4,0.4,1,0,1.4   C54.4,51.5,54.1,51.6,53.9,51.6z"/></g></svg>