<svg width="2709" height="697" xmlns="http://www.w3.org/2000/svg" xmlns:xlink="http://www.w3.org/1999/xlink" overflow="hidden"><defs><clipPath id="clip0"><rect x="522" y="1883" width="2709" height="697"/></clipPath><clipPath id="clip1"><rect x="847" y="2096" width="236" height="235"/></clipPath><clipPath id="clip2"><rect x="847" y="2096" width="236" height="235"/></clipPath><clipPath id="clip3"><rect x="847" y="2096" width="236" height="235"/></clipPath></defs><g clip-path="url(#clip0)" transform="translate(-522 -1883)"><text fill="#595959" fill-opacity="1" font-family="Arciform,Arciform_MSFontService,sans-serif" font-style="normal" font-variant="normal" font-weight="400" font-stretch="normal" font-size="330" text-anchor="start" direction="ltr" writing-mode="lr-tb" unicode-bidi="normal" text-decoration="none" transform="matrix(1 0 0 1 1233.4 2300)">SALADPEACE</text><g clip-path="url(#clip1)"><g clip-path="url(#clip2)"><g clip-path="url(#clip3)"><path d="M110.906 48.75C73.125 48.75 42.6563 79.2188 42.6563 117 42.6563 128.944 45.825 140.156 51.1875 149.906 56.3063 144.544 61.9125 139.181 68.0063 133.331 83.3625 118.95 101.4 104.325 116.513 93.6 117.488 92.8688 118.463 92.3813 119.681 92.3813 122.363 92.3813 124.556 94.575 124.556 97.2563 124.556 98.9625 123.825 100.181 122.606 101.156L122.606 101.156C100.913 116.756 72.15 140.888 52.65 162.825 52.65 162.825 49.9688 165.75 48.75 167.213 37.7813 180.131 30.4688 191.831 30.4688 200.119L45.0938 200.119C45.0938 194.756 53.625 183.056 66.5438 169.163 78.4875 179.4 93.8438 185.494 110.906 185.494 123.094 185.494 134.794 182.325 144.788 176.475 196.95 147.469 203.531 94.0875 203.531 34.125 203.531 34.125 146.738 49.725 110.906 48.75Z" fill="#00CC50" fill-rule="nonzero" fill-opacity="1" transform="matrix(1.00427 0 0 1 847 2097)"/></g></g></g><path d="M0 13.6905C-1.95038e-15 6.12943 6.12933-1.95041e-15 13.6902-1.95041e-15L476.533 0C484.094-1.95041e-15 490.224 6.12943 490.224 13.6905L490.224 15.2517C490.224 22.8127 484.094 28.9421 476.533 28.9421L13.6902 28.9421C6.12933 28.9421 1.95038e-15 22.8127 1.95038e-15 15.2517Z" stroke="#C9C9C9" stroke-width="4.58333" stroke-linecap="butt" stroke-linejoin="miter" stroke-miterlimit="8" stroke-opacity="1" fill="#C9C9C9" fill-rule="evenodd" fill-opacity="1" transform="matrix(0.707107 -0.707107 -0.707107 -0.707107 642.527 2322.57)"/><path d="M0 13.7179C-3.91489e-15 6.14172 6.14166-1.95746e-15 13.7178-1.95746e-15L232.282 0C239.858-3.91492e-15 246 6.14172 246 13.7179L246 15.2823C246 22.8585 239.858 29.0002 232.282 29.0002L13.7178 29.0002C6.14166 29.0002 1.95744e-15 22.8585 0 15.2823Z" stroke="#C9C9C9" stroke-width="4.58333" stroke-linecap="butt" stroke-linejoin="miter" stroke-miterlimit="8" stroke-opacity="1" fill="#C9C9C9" fill-rule="evenodd" fill-opacity="1" transform="matrix(1 0 0 -1 555.5 2164.5)"/><path d="M0 13.7178C-3.91488e-15 6.14166 6.14165-1.95744e-15 13.7178-1.95744e-15L232.282 0C239.858-3.91488e-15 246 6.14166 246 13.7178L246 15.2822C246 22.8583 239.858 29 232.282 29L13.7178 29C6.14165 29 1.95744e-15 22.8583 0 15.2822Z" stroke="#C9C9C9" stroke-width="4.58333" stroke-linecap="butt" stroke-linejoin="miter" stroke-miterlimit="8" stroke-opacity="1" fill="#C9C9C9" fill-rule="evenodd" fill-opacity="1" transform="matrix(-1.83697e-16 -1 -1 1.83697e-16 810.5 2389.5)"/><path d="M1154 2100.5C1154 2274.19 1013.19 2415 839.5 2415 669.149 2415 529.765 2279.37 525.117 2109.08L560.497 2108.12C564.703 2262.2 693.027 2383.71 847.116 2379.5 998.239 2375.38 1118.61 2251.68 1118.61 2100.5Z" fill="#595959" fill-rule="evenodd" fill-opacity="1"/><path d="M865.633 2057.57C862.277 2054.21 862.277 2048.77 865.633 2045.41L977.071 1933.97C980.427 1930.62 985.868 1930.62 989.224 1933.97L1013.53 1958.28C1016.89 1961.64 1016.89 1967.08 1013.53 1970.43L902.093 2081.87C898.737 2085.23 893.296 2085.23 889.94 2081.87Z" fill="#995BFF" fill-rule="evenodd" fill-opacity="1"/></g></svg>