<svg width="2204" height="1151" xmlns="http://www.w3.org/2000/svg" xmlns:xlink="http://www.w3.org/1999/xlink" overflow="hidden"><defs><clipPath id="clip0"><rect x="1462" y="100" width="2204" height="1151"/></clipPath><clipPath id="clip1"><rect x="2568" y="316" width="236" height="236"/></clipPath><clipPath id="clip2"><rect x="2568" y="316" width="236" height="236"/></clipPath><clipPath id="clip3"><rect x="2568" y="316" width="236" height="236"/></clipPath></defs><g clip-path="url(#clip0)" transform="translate(-1462 -100)"><path d="M1542 127.464C1542 114.505 1552.51 104 1565.46 104L3554.54 104C3567.5 104 3578 114.505 3578 127.464L3578 1050.54C3578 1063.49 3567.5 1074 3554.54 1074L1565.46 1074C1552.51 1074 1542 1063.49 1542 1050.54Z" fill="#FFFFFF" fill-rule="evenodd" fill-opacity="1"/><rect x="1623" y="637" width="1874" height="433" fill="#FFFFFF" fill-opacity="1"/><text fill="#595959" fill-opacity="1" font-family="Arciform,Arciform_MSFontService,sans-serif" font-style="normal" font-variant="normal" font-weight="400" font-stretch="normal" font-size="330" text-anchor="start" direction="ltr" writing-mode="lr-tb" unicode-bidi="normal" text-decoration="none" transform="matrix(1 0 0 1 1664.48 969)">SALADPEACE</text><g clip-path="url(#clip1)"><g clip-path="url(#clip2)"><g clip-path="url(#clip3)"><path d="M110.906 48.75C73.125 48.75 42.6563 79.2188 42.6563 117 42.6563 128.944 45.825 140.156 51.1875 149.906 56.3063 144.544 61.9125 139.181 68.0063 133.331 83.3625 118.95 101.4 104.325 116.513 93.6 117.488 92.8688 118.463 92.3813 119.681 92.3813 122.363 92.3813 124.556 94.575 124.556 97.2563 124.556 98.9625 123.825 100.181 122.606 101.156L122.606 101.156C100.913 116.756 72.15 140.888 52.65 162.825 52.65 162.825 49.9688 165.75 48.75 167.213 37.7813 180.131 30.4688 191.831 30.4688 200.119L45.0938 200.119C45.0938 194.756 53.625 183.056 66.5438 169.163 78.4875 179.4 93.8438 185.494 110.906 185.494 123.094 185.494 134.794 182.325 144.788 176.475 196.95 147.469 203.531 94.0875 203.531 34.125 203.531 34.125 146.738 49.725 110.906 48.75Z" fill="#00CC50" fill-rule="nonzero" fill-opacity="1" transform="matrix(1.00427 0 0 1 2569 317)"/></g></g></g><path d="M0 13.6905C-1.95038e-15 6.12943 6.12933-1.95041e-15 13.6902-1.95041e-15L476.533 0C484.094-1.95041e-15 490.224 6.12943 490.224 13.6905L490.224 15.2517C490.224 22.8127 484.094 28.9421 476.533 28.9421L13.6902 28.9421C6.12933 28.9421 1.95038e-15 22.8127 1.95038e-15 15.2517Z" stroke="#C9C9C9" stroke-width="4.58333" stroke-linecap="butt" stroke-linejoin="miter" stroke-miterlimit="8" stroke-opacity="1" fill="#C9C9C9" fill-rule="evenodd" fill-opacity="1" transform="matrix(0.707107 -0.707107 -0.707107 -0.707107 2364.46 542.548)"/><path d="M0 13.7179C-3.91489e-15 6.14172 6.14166-1.95746e-15 13.7178-1.95746e-15L232.282 0C239.858-3.91492e-15 246 6.14172 246 13.7179L246 15.2823C246 22.8585 239.858 29.0002 232.282 29.0002L13.7178 29.0002C6.14166 29.0002 1.95744e-15 22.8585 0 15.2823Z" stroke="#C9C9C9" stroke-width="4.58333" stroke-linecap="butt" stroke-linejoin="miter" stroke-miterlimit="8" stroke-opacity="1" fill="#C9C9C9" fill-rule="evenodd" fill-opacity="1" transform="matrix(1 0 0 -1 2277.5 384.5)"/><path d="M0 13.7179C-3.91489e-15 6.1417 6.14166-1.95745e-15 13.7178-1.95745e-15L232.282 0C239.858-3.91491e-15 246 6.1417 246 13.7179L246 15.282C246 22.8582 239.858 28.9999 232.282 28.9999L13.7178 28.9999C6.14166 28.9999 1.95744e-15 22.8582 0 15.282Z" stroke="#C9C9C9" stroke-width="4.58333" stroke-linecap="butt" stroke-linejoin="miter" stroke-miterlimit="8" stroke-opacity="1" fill="#C9C9C9" fill-rule="evenodd" fill-opacity="1" transform="matrix(-1.83697e-16 -1 -1 1.83697e-16 2532.5 609.5)"/><path d="M2876 320.5C2876 494.193 2735.19 635 2561.5 635 2391.15 635 2251.77 499.369 2247.12 329.081L2282.5 328.115C2286.7 482.204 2415.03 603.708 2569.12 599.502 2720.24 595.377 2840.61 471.68 2840.61 320.5Z" fill="#595959" fill-rule="evenodd" fill-opacity="1"/><path d="M2587.57 277.543C2584.21 274.187 2584.21 268.746 2587.57 265.39L2699 153.952C2702.36 150.596 2707.8 150.596 2711.16 153.952L2735.46 178.259C2738.82 181.615 2738.82 187.056 2735.46 190.412L2624.03 301.849C2620.67 305.205 2615.23 305.205 2611.87 301.849Z" fill="#995BFF" fill-rule="evenodd" fill-opacity="1"/></g></svg>