<svg width="903" height="702" xmlns="http://www.w3.org/2000/svg" xmlns:xlink="http://www.w3.org/1999/xlink" overflow="hidden"><defs><clipPath id="clip0"><rect x="160" y="398" width="903" height="702"/></clipPath><clipPath id="clip1"><rect x="623" y="639" width="337" height="336"/></clipPath><clipPath id="clip2"><rect x="623" y="639" width="337" height="336"/></clipPath><clipPath id="clip3"><rect x="623" y="639" width="337" height="336"/></clipPath></defs><g clip-path="url(#clip0)" transform="translate(-160 -398)"><g clip-path="url(#clip1)"><g clip-path="url(#clip2)"><g clip-path="url(#clip3)"><path d="M158.776 69.7917C104.688 69.7917 61.0677 113.412 61.0677 167.5 61.0677 184.599 65.6042 200.651 73.2813 214.609 80.6094 206.932 88.6355 199.255 97.3594 190.88 119.344 170.292 145.167 149.354 166.802 134 168.198 132.953 169.594 132.255 171.339 132.255 175.177 132.255 178.318 135.396 178.318 139.234 178.318 141.677 177.271 143.422 175.526 144.818L175.526 144.818C144.469 167.151 103.292 201.698 75.375 233.104 75.375 233.104 71.5365 237.292 69.7917 239.386 54.0886 257.88 43.6198 274.63 43.6198 286.495L64.5573 286.495C64.5573 278.818 76.7709 262.068 95.2657 242.177 112.365 256.833 134.349 265.557 158.776 265.557 176.224 265.557 192.974 261.021 207.281 252.646 281.958 211.12 291.38 134.698 291.38 48.8542 291.38 48.8542 210.073 71.1875 158.776 69.7917Z" fill="#00CC50" fill-rule="nonzero" fill-opacity="1" transform="matrix(1 0 0 1.00298 624 639)"/></g></g></g><path d="M0 19.5918C-2.7911e-15 8.77156 8.77141-2.79114e-15 19.5915-2.79114e-15L681.946 0C692.766-2.79114e-15 701.537 8.77156 701.537 19.5918L701.537 21.826C701.537 32.6463 692.766 41.4178 681.946 41.4178L19.5915 41.4178C8.77141 41.4178 2.7911e-15 32.6463 2.7911e-15 21.826Z" stroke="#C9C9C9" stroke-width="4.58333" stroke-linecap="butt" stroke-linejoin="miter" stroke-miterlimit="8" stroke-opacity="1" fill="#C9C9C9" fill-rule="evenodd" fill-opacity="1" transform="matrix(0.707107 -0.707107 -0.707107 -0.707107 330.662 962.229)"/><path d="M0 19.8674C-2.80089e-15 8.89495 8.89492 0 19.8674 0L332.133 0C343.105-2.8009e-15 352 8.89495 352 19.8674L352 22.1329C352 33.1053 343.105 42.0003 332.133 42.0003L19.8674 42.0003C8.89492 42.0003 0 33.1053 0 22.1329Z" stroke="#C9C9C9" stroke-width="4.58333" stroke-linecap="butt" stroke-linejoin="miter" stroke-miterlimit="8" stroke-opacity="1" fill="#C9C9C9" fill-rule="evenodd" fill-opacity="1" transform="matrix(1 0 0 -1 206.5 735.5)"/><path d="M0 19.3944C-2.80089e-15 8.68315 8.68311 0 19.3943 0L332.606 0C343.317-2.80091e-15 352 8.68315 352 19.3944L352 21.6059C352 32.3171 343.317 41.0003 332.606 41.0003L19.3943 41.0003C8.68311 41.0003 0 32.3171 0 21.6059Z" stroke="#C9C9C9" stroke-width="4.58333" stroke-linecap="butt" stroke-linejoin="miter" stroke-miterlimit="8" stroke-opacity="1" fill="#C9C9C9" fill-rule="evenodd" fill-opacity="1" transform="matrix(-1.83697e-16 -1 -1 1.83697e-16 570.5 1058.5)"/><path d="M1061.87 676.372C1044.27 924.553 828.809 1111.47 580.628 1093.87 354.891 1077.86 176.066 896.869 162.777 670.956L212.85 668.01C225.834 888.731 415.289 1057.13 636.009 1044.15 836.769 1032.34 997.61 873.427 1011.84 672.823Z" fill="#595959" fill-rule="evenodd" fill-opacity="1"/><path d="M649.94 582.992C645.137 578.19 645.137 570.403 649.94 565.6L809.413 406.127C814.216 401.324 822.002 401.325 826.805 406.127L861.589 440.911C866.391 445.714 866.391 453.5 861.589 458.303L702.116 617.776C697.313 622.579 689.526 622.579 684.723 617.776Z" fill="#995BFF" fill-rule="evenodd" fill-opacity="1"/></g></svg>